<svg xmlns="http://www.w3.org/2000/svg" viewBox="0 0 1280.5 678.47"><defs><style>.cls-1{fill:#eb5e03;}.cls-2{fill:#ffcf00;}.cls-3{fill:#fff;}.cls-4{fill:none;stroke:#fff;stroke-width:0.5px;}</style></defs><title>Ресурс 1@4x255</title><g id="Слой_2" data-name="Слой 2"><g id="Слой_1-2" data-name="Слой 1"><g id="Page-1"><g id="ux-ui-logo-2" data-name="ux-ui-logo"><g id="Logo"><circle id="Oval" class="cls-1" cx="464.83" cy="338.85" r="222.89"/><circle id="Oval-2" data-name="Oval" class="cls-2" cx="815.5" cy="338.85" r="222.89"/><path id="UX" class="cls-3" d="M461.86,367.79A97.51,97.51,0,0,1,459.44,390a51.5,51.5,0,0,1-7.92,18.15,38.65,38.65,0,0,1-14.41,12.32Q428.2,425,415.22,425t-21.67-4.51a39.15,39.15,0,0,1-14.19-12.32A50.12,50.12,0,0,1,371.55,390a101.77,101.77,0,0,1-2.31-22.22V265.49H389V365.81a93.86,93.86,0,0,0,1.21,15.29,43.64,43.64,0,0,0,4.18,13.09,23.9,23.9,0,0,0,8.14,9.13q5.18,3.4,13.09,3.41t13-3.41a24.29,24.29,0,0,0,8-9.13,43.64,43.64,0,0,0,4.18-13.09,93.86,93.86,0,0,0,1.21-15.29V265.49h19.8Zm62.88-44.22,25.52-58.08h20.46l-35.42,73.7,39.6,82.06H553.34l-29.26-65.56-29.26,65.56h-20.9L513.3,339l-35.42-73.48h20.9Z"/><path id="UI" d="M836.39,367.79A97.51,97.51,0,0,1,834,390a51.5,51.5,0,0,1-7.92,18.15,38.65,38.65,0,0,1-14.41,12.32Q802.73,425,789.75,425t-21.67-4.51a39.15,39.15,0,0,1-14.19-12.32A50.12,50.12,0,0,1,746.08,390a101.77,101.77,0,0,1-2.31-22.22V265.49h19.8V365.81a93.86,93.86,0,0,0,1.21,15.29A43.64,43.64,0,0,0,769,394.19a23.9,23.9,0,0,0,8.14,9.13q5.17,3.4,13.09,3.41t13-3.41a24.29,24.29,0,0,0,8-9.13,43.64,43.64,0,0,0,4.18-13.09,93.86,93.86,0,0,0,1.21-15.29V265.49h19.8Zm28.12,53.46V265.49h19.8V421.25Z"/></g><rect id="Rectangle-path" class="cls-4" x="0.25" y="0.25" width="1280" height="677.97"/></g></g></g></g></svg>